<?xml version="1.0" ?><!DOCTYPE svg  PUBLIC '-//W3C//DTD SVG 1.1//EN'  'http://www.w3.org/Graphics/SVG/1.1/DTD/svg11.dtd'><svg enable-background="new 0 0 128 128" id="Слой_1" version="1.1" viewBox="0 0 128 128" xml:space="preserve" xmlns="http://www.w3.org/2000/svg" xmlns:xlink="http://www.w3.org/1999/xlink"><g><g><path d="M64,4c-2.2,0-4.6,5.6-6.8,12.5c-4.7,14.9-6.3,30.5-5.1,46.1l3.7,48.2c0.1,0.7,0.6,1.2,1.3,1.2H64h6.9    c0.7,0,1.3-0.5,1.3-1.2l3.7-48.2c1.2-15.5-0.5-31.2-5.1-46.1C68.6,9.6,66.2,4,64,4z" fill="#D8D7D8"/></g><g><path d="M72.2,110.8l1.9-25.3H53.8l1.9,25.3c0.1,0.7,0.6,1.2,1.3,1.2H64h6.9C71.6,112.1,72.2,111.5,72.2,110.8z" fill="#959595"/></g><g><polygon fill="#3D3E3D" points="59,116.1 69,116.1 71.4,112.1 56.7,112.1   "/></g><g><path d="M69,116.7H59c-0.2,0-0.4-0.1-0.5-0.3l-2.4-4.1c-0.1-0.2-0.1-0.4,0-0.6c0.1-0.2,0.3-0.3,0.5-0.3h14.7    c0.2,0,0.4,0.1,0.5,0.3c0.1,0.2,0.1,0.4,0,0.6l-2.4,4.1C69.4,116.6,69.2,116.7,69,116.7z M59.4,115.5h9.2l1.6-2.8H57.7L59.4,115.5    z" fill="#1E1E1E"/></g><g><polygon fill="#3D3E3D" points="27.3,124 30.4,124 31.6,121.6 26.2,121.6   "/></g><g><polygon fill="#3D3E3D" points="97.6,123.9 100.7,123.9 101.8,121.6 96.4,121.6   "/></g><g><path d="M100.7,124.6h-3.1c-0.2,0-0.5-0.1-0.6-0.4l-1.2-2.4c-0.1-0.2-0.1-0.4,0-0.6s0.3-0.3,0.5-0.3h5.4    c0.2,0,0.4,0.1,0.5,0.3s0.1,0.4,0,0.6l-1.2,2.4C101.1,124.5,100.9,124.6,100.7,124.6z M98,123.3h2.3l0.6-1.1h-3.4L98,123.3z" fill="#1E1E1E"/></g><g><path d="M30.4,124.6h-3.1c-0.2,0-0.5-0.1-0.6-0.4l-1.2-2.4c-0.1-0.2-0.1-0.4,0-0.6c0.1-0.2,0.3-0.3,0.5-0.3h5.4    c0.2,0,0.4,0.1,0.5,0.3c0.1,0.2,0.1,0.4,0,0.6l-1.2,2.4C30.8,124.5,30.6,124.6,30.4,124.6z M27.7,123.3H30l0.6-1.1h-3.4    L27.7,123.3z" fill="#1E1E1E"/></g><g><path d="M57.2,16.6c-1.5,4.7-2.7,9.6-3.6,14.4h20.7c-0.9-4.9-2.1-9.7-3.6-14.4C68.6,9.6,66.2,4,64,4    C61.8,4,59.4,9.6,57.2,16.6z" fill="#F16256"/></g><g><path d="M54.6,26.6c-0.5,2.2-0.5,2.1-1,4.4h20.7c-0.4-2.3-0.4-2.1-1-4.4H54.6z" fill="#959595"/></g><g><path d="M57.2,16.6c-4.7,14.9-6.3,30.5-5.1,46.1l3.8,49.4h2.9l-3.8-49.4c-1.2-15.5-0.5-31.2,4.2-46.1    c1.7-5.5,3.6-10.6,5.4-12.3C64,3.8,64.5,4,64,4C61.8,4,59.4,9.6,57.2,16.6z" fill="#FFFFFF"/></g><g><path d="M74.2,86.2H53.8c-0.3,0-0.6-0.3-0.6-0.6s0.3-0.6,0.6-0.6h20.4c0.3,0,0.6,0.3,0.6,0.6S74.5,86.2,74.2,86.2z    " fill="#1E1E1E"/></g><g><path d="M70.9,112.7H57.1c-1,0-1.9-0.8-2-1.8l-3.7-48.2c-1.2-15.9,0.5-31.5,5.2-46.3c3.6-11.6,6-13,7.4-13    s3.7,1.3,7.4,13c4.7,14.8,6.4,30.4,5.2,46.3l-3.7,48.2C72.8,111.9,71.9,112.7,70.9,112.7z M64,4.7c-0.7,0-2.8,1.2-6.2,12.1    c-4.6,14.7-6.3,30.1-5.1,45.8l3.7,48.2c0,0.4,0.3,0.7,0.7,0.7h13.8c0.4,0,0.7-0.3,0.7-0.7l3.7-48.2c1.2-15.7-0.5-31.1-5.1-45.8    C66.8,5.8,64.7,4.7,64,4.7z" fill="#1E1E1E"/></g><g><polygon fill="#56BEC3" points="28.9,104.1 53.8,85.1 55.5,107.4 28.9,112.1   "/></g><g><polygon fill="#FFFFFF" points="53.8,85.1 28.9,104.1 28.9,104.6 53.8,87.4 55.3,107.4 55.5,107.4   "/></g><g><path d="M28.9,112.7c-0.1,0-0.3-0.1-0.4-0.1c-0.1-0.1-0.2-0.3-0.2-0.5v-8c0-0.2,0.1-0.4,0.2-0.5l24.9-19.1    c0.2-0.1,0.4-0.2,0.6-0.1c0.2,0.1,0.4,0.3,0.4,0.5l1.7,22.3c0,0.3-0.2,0.6-0.5,0.7L29,112.7C28.9,112.7,28.9,112.7,28.9,112.7z     M29.5,104.4v6.9l25.4-4.5l-1.6-20.6L29.5,104.4z" fill="#1E1E1E"/></g><g opacity="0.1"><polygon fill="#060808" points="51.5,108.1 55.5,107.4 53.8,85.1 49.9,88   "/></g><g opacity="0.1"><path d="M38.8,96.5l-10,7.6v8l10.5-1.9C39.9,105.6,39.7,101,38.8,96.5z" fill="#060808"/></g><g><path d="M25.9,121.6h6l0.1-0.1c4-8.6,4.9-18.4,2.1-27.4c-1.2-4-2.9-7-5.1-7h0c-2.2,0-3.9,3-5.1,7    c-2.8,9.1-1.9,18.9,2.1,27.4L25.9,121.6z" fill="#C7B13C"/></g><g><path d="M24.4,92.1h9c-1-2.7-2.3-4.6-3.9-5h-1.2C26.7,87.5,25.4,89.5,24.4,92.1z" fill="#F16256"/></g><g><path d="M23.7,94c-2.8,9.1-1.9,18.9,2.1,27.4l0.1,0.1h2.4l-0.1-0.1c-4-8.6-5.8-18.4-3.1-27.4    c1-3.2,1.8-5.8,3.5-6.7c-0.4-0.2,0.7-0.3,0.2-0.3C26.6,87,24.9,90.1,23.7,94z" fill="#FFFFFF"/></g><g><path d="M33.3,92.8h-9c-0.3,0-0.6-0.3-0.6-0.6s0.3-0.6,0.6-0.6h9c0.3,0,0.6,0.3,0.6,0.6S33.7,92.8,33.3,92.8z" fill="#1E1E1E"/></g><g><path d="M31.8,122.2h-6c-0.2,0-0.5-0.1-0.6-0.4l-0.1-0.1c-4.2-8.9-4.9-18.8-2.1-27.9c1.5-4.9,3.4-7.4,5.7-7.4    c2.3,0,4.2,2.5,5.7,7.4c2.8,9.1,2,19-2.1,27.9l-0.1,0.1C32.3,122.1,32.1,122.2,31.8,122.2z M26.3,121h5.2c3.9-8.5,4.6-18,2-26.8    c-1.3-4.2-2.9-6.5-4.5-6.5s-3.3,2.3-4.5,6.5C21.6,103,22.3,112.4,26.3,121z" fill="#1E1E1E"/></g><g><polygon fill="#56BEC3" points="74.2,85.1 99.1,104.1 99.1,112.1 72.5,107.4   "/></g><g><path d="M99.1,112.7c0,0-0.1,0-0.1,0L72.4,108c-0.3-0.1-0.5-0.3-0.5-0.7L73.6,85c0-0.2,0.2-0.4,0.4-0.5    c0.2-0.1,0.5-0.1,0.6,0.1l24.9,19.1c0.2,0.1,0.2,0.3,0.2,0.5v8c0,0.2-0.1,0.4-0.2,0.5C99.4,112.6,99.3,112.7,99.1,112.7z     M73.2,106.8l25.4,4.5v-6.9L74.8,86.3L73.2,106.8z" fill="#1E1E1E"/></g><g opacity="0.1"><polygon fill="#060808" points="78.1,88 74.2,85.1 72.5,107.4 76.5,108.1   "/></g><g opacity="0.1"><path d="M99.1,104.1l-10-7.6c-0.9,4.5-1.1,9.1-0.5,13.7l10.5,1.9V104.1z" fill="#060808"/></g><g><path d="M96.2,121.6h6l0.1-0.1c4-8.6,4.9-18.4,2.1-27.4c-1.2-4-2.9-7-5.1-7h0c-2.2,0-3.9,3-5.1,7    c-2.8,9.1-1.9,18.9,2.1,27.4L96.2,121.6z" fill="#C7B13C"/></g><g><path d="M94.7,92.1h9c-1-2.7-2.3-4.6-3.9-5h-1.2C97,87.5,95.7,89.5,94.7,92.1z" fill="#F16256"/></g><g><line fill="#F16256" x1="94.7" x2="103.6" y1="92.1" y2="92.1"/></g><g><path d="M94,94c-2.8,9.1-1.9,18.9,2.1,27.4l0.1,0.1h2.4l-0.1-0.1c-4-8.6-5.8-18.4-3.1-27.4c1-3.2,2.3-5.8,4-6.7    C99,87.1,99.6,87,99.1,87C96.9,87,95.2,90.1,94,94z" fill="#FFFFFF"/></g><g><path d="M103.6,92.8h-9c-0.3,0-0.6-0.3-0.6-0.6s0.3-0.6,0.6-0.6h9c0.3,0,0.6,0.3,0.6,0.6S104,92.8,103.6,92.8z" fill="#1E1E1E"/></g><g><path d="M102.1,122.2h-6c-0.2,0-0.5-0.1-0.6-0.4l-0.1-0.1c-4.2-8.9-4.9-18.8-2.1-27.9c1.5-4.9,3.4-7.4,5.7-7.4    s4.2,2.5,5.7,7.4c2.8,9.1,2,19-2.1,27.9l-0.1,0.1C102.6,122.1,102.4,122.2,102.1,122.2z M96.6,121h5.2c3.9-8.5,4.6-18,2-26.8    c-1.3-4.2-2.9-6.5-4.5-6.5s-3.3,2.3-4.5,6.5C91.9,103,92.6,112.4,96.6,121z" fill="#1E1E1E"/></g><g><circle cx="64" cy="40.5" fill="#3D3E3D" r="4.7"/></g><g><path d="M65.4,37.2c0.9,0,1.8,0.3,2.5,0.7c-0.8-1.3-2.3-2.2-4-2.2c-2.6,0-4.7,2.1-4.7,4.7c0,1.7,0.9,3.1,2.2,4    c-0.5-0.7-0.7-1.6-0.7-2.5C60.7,39.3,62.8,37.2,65.4,37.2z" fill="#FFFFFF"/></g><g><path d="M64,45.8c-3,0-5.4-2.4-5.4-5.4s2.4-5.4,5.4-5.4s5.4,2.4,5.4,5.4S67,45.8,64,45.8z M64,36.4    c-2.3,0-4.1,1.8-4.1,4.1s1.8,4.1,4.1,4.1s4.1-1.8,4.1-4.1S66.3,36.4,64,36.4z" fill="#1E1E1E"/></g><g><circle cx="64" cy="54.8" fill="#3D3E3D" r="4.7"/></g><g><path d="M65.4,51.5c0.9,0,1.8,0.3,2.5,0.7c-0.8-1.3-2.3-2.2-4-2.2c-2.6,0-4.7,2.1-4.7,4.7c0,1.7,0.9,3.1,2.2,4    c-0.5-0.7-0.7-1.6-0.7-2.5C60.7,53.6,62.8,51.5,65.4,51.5z" fill="#FFFFFF"/></g><g><path d="M64,60.1c-3,0-5.4-2.4-5.4-5.4s2.4-5.4,5.4-5.4s5.4,2.4,5.4,5.4S67,60.1,64,60.1z M64,50.7    c-2.3,0-4.1,1.8-4.1,4.1s1.8,4.1,4.1,4.1s4.1-1.8,4.1-4.1S66.3,50.7,64,50.7z" fill="#1E1E1E"/></g><g><circle cx="64" cy="69.1" fill="#3D3E3D" r="4.7"/></g><g><path d="M65.4,65.8c0.9,0,1.8,0.3,2.5,0.7c-0.8-1.3-2.3-2.2-4-2.2c-2.6,0-4.7,2.1-4.7,4.7c0,1.7,0.9,3.1,2.2,4    c-0.5-0.7-0.7-1.6-0.7-2.5C60.7,67.9,62.8,65.8,65.4,65.8z" fill="#FFFFFF"/></g><g><path d="M64,74.4c-3,0-5.4-2.4-5.4-5.4s2.4-5.4,5.4-5.4s5.4,2.4,5.4,5.4S67,74.4,64,74.4z M64,65    c-2.3,0-4.1,1.8-4.1,4.1s1.8,4.1,4.1,4.1s4.1-1.8,4.1-4.1S66.3,65,64,65z" fill="#1E1E1E"/></g><g><path d="M74.4,31.6H53.7c-0.3,0-0.6-0.3-0.6-0.6s0.3-0.6,0.6-0.6h20.7c0.3,0,0.6,0.3,0.6,0.6S74.7,31.6,74.4,31.6z    " fill="#1E1E1E"/></g><g><path d="M53.7,31.6c0,0-0.1,0-0.1,0c-0.3-0.1-0.6-0.4-0.5-0.7c0.3-1.9,0.4-2.1,0.7-3.4l0.3-1    c0.1-0.3,0.3-0.5,0.6-0.5h18.8c0.3,0,0.6,0.3,0.6,0.6s-0.3,0.6-0.6,0.6H55.1L55,27.8c-0.3,1.2-0.4,1.5-0.7,3.3    C54.2,31.4,54,31.6,53.7,31.6z" fill="#1E1E1E"/></g></g></svg>