<?xml version="1.0" ?><!DOCTYPE svg  PUBLIC '-//W3C//DTD SVG 1.1//EN'  'http://www.w3.org/Graphics/SVG/1.1/DTD/svg11.dtd'><svg enable-background="new 0 0 100 100" height="100px" id="Layer_1" version="1.1" viewBox="0 0 100 100" width="100px" xml:space="preserve" xmlns="http://www.w3.org/2000/svg" xmlns:xlink="http://www.w3.org/1999/xlink"><g><path d="M49.859,3.971c-25.353,0-45.978,20.625-45.978,45.978s20.625,45.978,45.978,45.978   c25.352,0,45.977-20.625,45.977-45.978S75.211,3.971,49.859,3.971z M49.859,93.926c-24.25,0-43.978-19.728-43.978-43.978   S25.609,5.971,49.859,5.971c24.249,0,43.977,19.728,43.977,43.978S74.108,93.926,49.859,93.926z" fill="#3C5A9B"/><path d="M64.343,22.212h-8.818c-7.194,0-13.272,6.837-13.272,14.931v3.25h-7.001c-0.552,0-1,0.448-1,1v10.91   c0,0.552,0.448,1,1,1h7.001v23.625c0,0.552,0.448,1,1,1h10.182c0.552,0,1-0.448,1-1V53.304h9.909c0.552,0,1-0.448,1-1v-10.91   c0-0.552-0.448-1-1-1h-9.909v-3.345c0-1.272,0.764-1.928,1.09-1.928h8.818c0.552,0,1-0.448,1-1V23.212   C65.343,22.66,64.896,22.212,64.343,22.212z M63.343,33.121h-7.818c-1.492,0-3.09,1.578-3.09,3.928v4.345c0,0.552,0.448,1,1,1   h9.909v8.91h-9.909c-0.552,0-1,0.448-1,1v23.625h-8.182V52.304c0-0.552-0.448-1-1-1h-7.001v-8.91h7.001c0.552,0,1-0.448,1-1v-4.25   c0-7.009,5.162-12.931,11.272-12.931h7.818V33.121z" fill="#3C5A9B"/></g></svg>